<?xml version="1.0" encoding="UTF-8"?>
<svg width="752pt" height="752pt" version="1.1" viewBox="0 0 752 752" xmlns="http://www.w3.org/2000/svg">
 <g>
  <path fill="#e5e7eb" d="m575.38 399.68-30.781-63.934c-1.4219-2.8398-3.7891-4.7344-6.6289-6.1562l-158.18-55.41c-2.3672-0.94531-5.2109-0.94531-7.5781 0l-157.7 55.41c-2.8398 0.94531-5.2109 3.3164-6.6289 6.1562l-31.258 63.934c-1.4219 2.8398-1.4219 6.6289-0.47266 9.4727 1.4219 3.3164 3.7891 5.6836 7.1055 6.6289l23.207 8.0508v109.87c0 5.2109 3.3164 9.4727 8.0508 10.891l157.7 55.41c1.4219 0.47266 2.3672 0.47266 3.7891 0.47266 1.4219 0 2.8398 0 3.7891-0.47266l157.7-55.41c4.7344-1.8945 8.0508-6.1562 8.0508-10.891l-0.007812-109.39 23.207-8.0508c3.3164-0.94531 5.6836-3.3164 7.1055-6.6289 0.94531-3.3164 0.94531-6.6328-0.47656-9.9492zm-199.38-101.82 122.18 43.098-122.18 42.621-122.18-43.098zm-151.54 57.305 135.45 47.359-20.836 42.621-135.45-47.359zm5.6797 77.195 111.29 38.832c1.4219 0.47266 2.3672 0.47266 3.7891 0.47266 4.2617 0 8.5234-2.3672 10.418-6.6289l8.5234-17.996v125.02l-134.02-47.359zm291.73 93.293-134.02 47.359v-125.5l8.5234 17.996c1.8945 4.2617 6.1562 6.6289 10.418 6.6289 1.4219 0 2.8398 0 3.7891-0.47266l111.29-38.832zm-108.92-80.035-20.836-42.621 135.45-47.359 20.836 42.621z"/>
  <path fill="#e5e7eb" d="m376 229.66c6.6289 0 11.84-5.2109 11.84-11.84v-54.934c0-6.6289-5.2109-11.84-11.84-11.84s-11.84 5.2109-11.84 11.84v55.41c0 6.1562 5.2109 11.363 11.84 11.363z"/>
  <path fill="#e5e7eb" d="m451.3 251.45c1.8945 1.4219 4.2617 1.8945 6.1562 1.8945 3.7891 0 7.5781-1.8945 9.9453-5.6836l29.363-46.883c3.3164-5.6836 1.8945-12.785-3.7891-16.102-5.6836-3.3164-12.785-1.8945-16.102 3.7891l-29.363 46.883c-3.3164 5.2109-1.4219 12.785 3.7891 16.102z"/>
  <path fill="#e5e7eb" d="m284.12 247.66c2.3672 3.7891 6.1562 5.6836 9.9453 5.6836 1.8945 0 4.2617-0.47266 6.1562-1.8945 5.6836-3.3164 7.1055-10.891 3.7891-16.102l-29.363-46.883c-3.3164-5.6836-10.891-7.1055-16.102-3.7891-5.6836 3.3164-7.1055 10.891-3.7891 16.102z"/>
 </g>
</svg>
